# xmcd
#
# Track frame offsets:
#	150
#	110303
#	176425
#	238654
#	270140
#	293963
#	324389
#
# Disc length: 4587 seconds
#
# Revision: 0
# Processed by: cddbd v1.5.2PL0 Copyright (c) Steve Scherf et al.
# Submitted via: audiograbber 1.83.01
#
DISCID=5611e907
DTITLE=Grateful Dead - 93-06-23 Deer Creek Music Centre, Noblesville IN
DYEAR=1900
DGENRE=
TTITLE0=Terrapin Station
TTITLE1=Drums
TTITLE2=Space
TTITLE3=Dark Star
TTITLE4=The Wheel
TTITLE5=Good Lovin'
TTITLE6=Lucy In The Sky With Diamonds
EXTD=
EXTT0=
EXTT1=
EXTT2=
EXTT3=
EXTT4=
EXTT5=
EXTT6=
PLAYORDER=
